<?xml version="1.0" encoding="UTF-8"?> <svg xmlns="http://www.w3.org/2000/svg" width="40" height="40" viewBox="0 0 40 40" fill="none"><rect width="40" height="40" rx="20" fill="#F0F9FF"></rect><path d="M20 25.9999V12.9999M20 25.9999C20.0006 26.5466 20.1132 27.0875 20.331 27.589C20.5488 28.0905 20.8671 28.542 21.2662 28.9156C21.6654 29.2893 22.1369 29.5772 22.6516 29.7615C23.1664 29.9458 23.7134 30.0226 24.259 29.9872C24.8046 29.9518 25.3372 29.8049 25.8238 29.5556C26.3104 29.3064 26.7407 28.96 27.0882 28.5378C27.4357 28.1157 27.693 27.6269 27.8441 27.1014C27.9953 26.576 28.0371 26.0251 27.967 25.4829M20 25.9999C19.9994 26.5466 19.8867 27.0875 19.669 27.589C19.4512 28.0905 19.1329 28.542 18.7338 28.9156C18.3346 29.2893 17.8631 29.5772 17.3484 29.7615C16.8336 29.9458 16.2866 30.0226 15.741 29.9872C15.1954 29.9518 14.6628 29.8049 14.1762 29.5556C13.6896 29.3064 13.2593 28.96 12.9118 28.5378C12.5643 28.1157 12.307 27.6269 12.1559 27.1014C12.0047 26.576 11.9629 26.0251 12.033 25.4829M20 12.9999C20 12.5397 20.1058 12.0857 20.3093 11.673C20.5128 11.2603 20.8086 10.8999 21.1737 10.6197C21.5387 10.3396 21.9634 10.1472 22.4147 10.0574C22.866 9.96763 23.332 9.98288 23.7765 10.102C24.221 10.2211 24.6321 10.4408 24.9781 10.7443C25.324 11.0477 25.5956 11.4266 25.7717 11.8518C25.9478 12.2769 26.0237 12.7369 25.9936 13.1961C25.9634 13.6553 25.8281 14.1014 25.598 14.4999M20 12.9999C20 12.5397 19.8942 12.0857 19.6907 11.673C19.4871 11.2603 19.1914 10.8999 18.8263 10.6197C18.4613 10.3396 18.0366 10.1472 17.5853 10.0574C17.134 9.96763 16.668 9.98288 16.2235 10.102C15.779 10.2211 15.3679 10.4408 15.0219 10.7443C14.6759 11.0477 14.4044 11.4266 14.2283 11.8518C14.0522 12.2769 13.9763 12.7369 14.0064 13.1961C14.0365 13.6553 14.1719 14.1014 14.402 14.4999M23 20.9999C22.1348 20.747 21.3748 20.2205 20.834 19.4994C20.2931 18.7783 20.0005 17.9013 20 16.9999C19.9995 17.9013 19.7068 18.7783 19.166 19.4994C18.6251 20.2205 17.8652 20.747 17 20.9999M25.997 13.1249C26.5848 13.276 27.1305 13.5589 27.5928 13.9522C28.055 14.3455 28.4218 14.8388 28.6651 15.3947C28.9085 15.9507 29.0222 16.5548 28.9976 17.1612C28.973 17.7676 28.8107 18.3605 28.523 18.8949M26 25.9999C26.8805 25.9999 27.7364 25.7093 28.4349 25.1733C29.1335 24.6372 29.6356 23.8857 29.8635 23.0352C30.0914 22.1847 30.0323 21.2827 29.6954 20.4693C29.3584 19.6558 28.7625 18.9762 28 18.5359M14 25.9999C13.1195 25.9999 12.2636 25.7093 11.5651 25.1733C10.8665 24.6372 10.3644 23.8857 10.1365 23.0352C9.90858 22.1847 9.96768 21.2827 10.3046 20.4693C10.6415 19.6558 11.2375 18.9762 12 18.5359M14.003 13.1249C13.4152 13.276 12.8695 13.5589 12.4072 13.9522C11.945 14.3455 11.5782 14.8388 11.3348 15.3947C11.0914 15.9507 10.9778 16.5548 11.0024 17.1612C11.027 17.7676 11.1893 18.3605 11.477 18.8949" stroke="#316B56" stroke-width="2" stroke-linecap="round" stroke-linejoin="round"></path></svg> 