<?xml version="1.0" encoding="UTF-8"?> <svg xmlns="http://www.w3.org/2000/svg" width="56" height="56" viewBox="0 0 56 56" fill="none"><rect width="56" height="56" rx="28" fill="#F3E8FF"></rect><path d="M27.4167 31.5H22.1667C20.929 31.5 19.742 31.9917 18.8668 32.8668C17.9917 33.742 17.5 34.929 17.5 36.1667V38.5M38.941 33.397C39.4057 32.9323 39.6668 32.3019 39.6668 31.6447C39.6668 30.9874 39.4057 30.3571 38.941 29.8923C38.4763 29.4276 37.8459 29.1665 37.1887 29.1665C36.5314 29.1665 35.9011 29.4276 35.4363 29.8923L30.758 34.573C30.4806 34.8502 30.2776 35.1929 30.1677 35.5693L29.1912 38.9177C29.1619 39.0181 29.1601 39.1245 29.1861 39.2258C29.212 39.3271 29.2647 39.4195 29.3387 39.4935C29.4126 39.5674 29.5051 39.6201 29.6064 39.6461C29.7077 39.672 29.8141 39.6703 29.9145 39.641L33.2628 38.6645C33.6393 38.5546 33.9819 38.3515 34.2592 38.0742L38.941 33.397ZM30.3333 22.1667C30.3333 24.744 28.244 26.8333 25.6667 26.8333C23.0893 26.8333 21 24.744 21 22.1667C21 19.5893 23.0893 17.5 25.6667 17.5C28.244 17.5 30.3333 19.5893 30.3333 22.1667Z" stroke="#AA13B8" stroke-width="2.33333" stroke-linecap="round" stroke-linejoin="round"></path></svg> 